<svg id="Capa_1" data-name="Capa 1" xmlns="http://www.w3.org/2000/svg" viewBox="0 0 512 512"><defs><style>.cls-1{fill:#00a28a;}.cls-2{fill:#f6ff73;}</style></defs><circle class="cls-1" cx="256" cy="256" r="227.46"/><g id="star"><path class="cls-2" d="M395.43,210.7a13.31,13.31,0,0,0-10.76-9.07L304,189.91,268,116.82a13.32,13.32,0,0,0-23.9,0L208,189.91l-80.65,11.72a13.33,13.33,0,0,0-7.39,22.73l58.36,56.89-13.78,80.32a13.33,13.33,0,0,0,19.34,14.05L256,337.7l72.14,37.92a13.33,13.33,0,0,0,19.34-14.05L333.7,281.25l58.36-56.89a13.33,13.33,0,0,0,3.37-13.66Z"/></g></svg>